<svg version="1.1" xmlns="http://www.w3.org/2000/svg" viewBox="0 0 1411.1885025170413 1008.6666666666665" width="1411.1885025170413" height="1008.6666666666665">
  <!-- svg-source:excalidraw -->
  
  <defs>
    <style class="style-fonts">
      @font-face {
        font-family: "Virgil";
        src: url("https://excalidraw.com/Virgil.woff2");
      }
      @font-face {
        font-family: "Cascadia";
        src: url("https://excalidraw.com/Cascadia.woff2");
      }
      @font-face {
        font-family: "Assistant";
        src: url("https://excalidraw.com/Assistant-Regular.woff2");
      }
    </style>
    
  </defs>
  <g stroke-linecap="round"><g transform="translate(74.8551691837082 904.9999999999998) rotate(0 604.9999999999998 0)"><path d="M0.62 0.46 C202.45 0.42, 1009.34 -0.07, 1211.09 -0.04 M-0.51 -0.34 C201.24 -0.2, 1008.81 1.64, 1210.71 1.48" stroke="#1e1e1e" stroke-width="4" fill="none"></path></g><g transform="translate(74.8551691837082 904.9999999999998) rotate(0 604.9999999999998 0)"><path d="M1187.21 10 C1195.27 9.04, 1201.74 6.35, 1210.71 1.48 M1187.21 10 C1196.43 7.49, 1203.88 4.39, 1210.71 1.48" stroke="#1e1e1e" stroke-width="4" fill="none"></path></g><g transform="translate(74.8551691837082 904.9999999999998) rotate(0 604.9999999999998 0)"><path d="M1187.22 -7.1 C1195.31 -2.74, 1201.78 -0.11, 1210.71 1.48 M1187.22 -7.1 C1196.37 -3.53, 1203.82 -0.55, 1210.71 1.48" stroke="#1e1e1e" stroke-width="4" fill="none"></path></g></g><mask></mask><g stroke-linecap="round"><g transform="translate(154.8551691837082 968.333333333333) rotate(0 0 -478.33333333333326)"><path d="M0.97 -0.85 C0.86 -160.25, -0.03 -797.82, -0.07 -957.19 M0.03 1.31 C-0.3 -157.86, -1.11 -796.39, -1.06 -955.93" stroke="#1e1e1e" stroke-width="4" fill="none"></path></g><g transform="translate(154.8551691837082 968.333333333333) rotate(0 0 -478.33333333333326)"><path d="M7.5 -932.45 C3.25 -940.68, 0.81 -947.55, -1.06 -955.93 M7.5 -932.45 C4.65 -939.06, 2.2 -945.04, -1.06 -955.93" stroke="#1e1e1e" stroke-width="4" fill="none"></path></g><g transform="translate(154.8551691837082 968.333333333333) rotate(0 0 -478.33333333333326)"><path d="M-9.6 -932.44 C-7.89 -940.81, -4.37 -947.69, -1.06 -955.93 M-9.6 -932.44 C-7.89 -939.08, -5.77 -945.06, -1.06 -955.93" stroke="#1e1e1e" stroke-width="4" fill="none"></path></g></g><mask></mask><g stroke-linecap="round"><g transform="translate(11.521835850374828 869.9999999999998) rotate(0 679.1666666666664 -422.42198996311424)"><path d="M-0.04 0.24 C81.1 -27.14, 354.74 -58.81, 486.32 -164.07 C617.91 -269.34, 644.31 -518.02, 789.47 -631.37 C934.64 -744.72, 1262.38 -808.7, 1357.3 -844.17 M-1.52 -0.68 C79.48 -27.94, 353.5 -58.04, 485.19 -162.93 C616.89 -267.81, 643.35 -516.07, 788.65 -629.97 C933.95 -743.88, 1262.14 -810.79, 1357 -846.37" stroke="#1e1e1e" stroke-width="4" fill="none"></path></g></g><mask></mask><g stroke-linecap="round"><g transform="translate(174.8551691837082 206.66666666666657) rotate(0 87.91666666666669 -87.91666666666666)"><path d="M0 0 C64.71 -63.1, 125.8 -124.97, 175.83 -175.83 M0 0 C44.02 -44.3, 86.11 -86.54, 175.83 -175.83" stroke="#ff8787" stroke-width="2" fill="none"></path></g></g><mask></mask><g stroke-linecap="round"><g transform="translate(191.52183585037483 339.9999999999999) rotate(0 153.75 -153.74999999999997)"><path d="M0 0 C115.9 -118.77, 232.96 -235.27, 307.5 -307.5 M0 0 C70.96 -72.62, 143.51 -144.61, 307.5 -307.5" stroke="#ff8787" stroke-width="2" fill="none"></path></g></g><mask></mask><g stroke-linecap="round"><g transform="translate(179.43850251704134 489.58333333333326) rotate(0 230.83333333333326 -230.8333333333333)"><path d="M0 0 C164.66 -164.59, 331.67 -330.84, 461.67 -461.67 M0 0 C106.66 -104.11, 212.32 -209.93, 461.67 -461.67" stroke="#ff8787" stroke-width="2" fill="none"></path></g></g><mask></mask><g stroke-linecap="round"><g transform="translate(161.10516918370854 657.9166666666663) rotate(0 319.9999999999998 -319.9999999999998)"><path d="M0 0 C163.14 -161.86, 322.67 -323.11, 640 -640 M0 0 C148.83 -147.94, 295.62 -294.64, 640 -640" stroke="#ff8787" stroke-width="2" fill="none"></path></g></g><mask></mask><g stroke-linecap="round"><g transform="translate(152.3551691837083 790.8333333333328) rotate(0 386.6666666666665 -386.6666666666664)"><path d="M0 0 C299.85 -302.18, 601.69 -603.22, 773.33 -773.33 M0 0 C156.35 -154.84, 311.29 -309.67, 773.33 -773.33" stroke="#ff8787" stroke-width="2" fill="none"></path></g></g><mask></mask><g stroke-linecap="round"><g transform="translate(319.8551691837084 779.9999999999995) rotate(0 164.58333333333331 -164.58333333333326)"><path d="M0 0 C106.2 -103.85, 213.29 -210.17, 329.17 -329.17 M0 0 C69.66 -69, 138.78 -138.8, 329.17 -329.17" stroke="#ff8787" stroke-width="2" fill="none"></path></g></g><mask></mask><g stroke-linecap="round"><g transform="translate(954.0218358503748 150.83333333333297) rotate(0 65.41666666666652 -65.41666666666654)"><path d="M0 0 C31.29 -29.95, 65.89 -61.01, 130.83 -130.83 M0 0 C52.53 -49.88, 102.11 -102.12, 130.83 -130.83" stroke="#ff8787" stroke-width="2" fill="none"></path></g></g><mask></mask><g stroke-linecap="round"><g transform="translate(1172.3551691837083 74.16666666666634) rotate(0 32.083333333333144 -32.08333333333317)"><path d="M0 0 C24.1 -24.13, 46.36 -48.19, 64.17 -64.17 M0 0 C20.42 -21.98, 43.31 -44.1, 64.17 -64.17" stroke="#ff8787" stroke-width="2" fill="none"></path></g></g><mask></mask><g stroke-linecap="round"><g transform="translate(282.3551691837084 817.4999999999995) rotate(0 -34.16666666666674 34.16666666666674)"><path d="M0 0 C-23.73 23.36, -45.35 47.56, -68.33 68.33 M0 0 C-15.65 15.1, -29.61 30.86, -68.33 68.33" stroke="#4dabf7" stroke-width="2" fill="none"></path></g></g><mask></mask><g stroke-linecap="round"><g transform="translate(939.8551691837081 164.9999999999995) rotate(0 -134.58333333333326 134.58333333333326)"><path d="M0 0 C-59.07 59.58, -117.56 119.73, -269.17 269.17 M0 0 C-86.51 87.8, -172.27 173.53, -269.17 269.17" stroke="#4dabf7" stroke-width="2" fill="none"></path></g></g><mask></mask><g stroke-linecap="round"><g transform="translate(1155.6885025170418 104.1666666666664) rotate(0 -392.0833333333335 392.08333333333326)"><path d="M0 0 C-199.96 198.45, -401.05 398.81, -784.17 784.17 M0 0 C-235.72 235.56, -468.75 468.94, -784.17 784.17" stroke="#4dabf7" stroke-width="2" fill="none"></path></g></g><mask></mask><g stroke-linecap="round"><g transform="translate(1328.1885025170416 53.33333333333303) rotate(0 -414.5833333333334 414.58333333333326)"><path d="M0 0 C-181.41 178.98, -361.32 359.71, -829.17 829.17 M0 0 C-310.06 310.03, -618.65 618.55, -829.17 829.17" stroke="#4dabf7" stroke-width="2" fill="none"></path></g></g><mask></mask><g stroke-linecap="round"><g transform="translate(651.5218358503748 881.6666666666663) rotate(0 352.91666666666674 -352.9166666666667)"><path d="M0 0 C147.03 -147.17, 294.88 -295.67, 705.83 -705.83 M0 0 C193.42 -194.53, 385.98 -387.3, 705.83 -705.83" stroke="#4dabf7" stroke-width="2" fill="none"></path></g></g><mask></mask><g stroke-linecap="round"><g transform="translate(828.1885025170413 876.6666666666663) rotate(0 257.0833333333335 -257.0833333333334)"><path d="M0 0 C147.9 -147.14, 295.81 -295.28, 514.17 -514.17 M0 0 C142.74 -145.91, 286.69 -290, 514.17 -514.17" stroke="#4dabf7" stroke-width="2" fill="none"></path></g></g><mask></mask><g stroke-linecap="round"><g transform="translate(978.1885025170413 879.9999999999998) rotate(0 165.83333333333348 -165.83333333333326)"><path d="M0 0 C101.52 -102.05, 204.72 -203.34, 331.67 -331.67 M0 0 C109.31 -110.22, 219.78 -220.14, 331.67 -331.67" stroke="#4dabf7" stroke-width="2" fill="none"></path></g></g><mask></mask><g stroke-linecap="round"><g transform="translate(1123.1885025170413 878.333333333333) rotate(0 80.41666666666674 -80.41666666666663)"><path d="M0 0 C43.57 -46.16, 89.38 -92.25, 160.83 -160.83 M0 0 C57.59 -56.44, 117.31 -114.71, 160.83 -160.83" stroke="#4dabf7" stroke-width="2" fill="none"></path></g></g><mask></mask><g stroke-linecap="round"><g transform="translate(429.8551691837082 751.6666666666661) rotate(0 0 86.6666666666668)"><path d="M0 0 C-2.78 45.97, -1.25 95.62, 0 173.33" stroke="#1e1e1e" stroke-width="2.5" fill="none" stroke-dasharray="1.5 8"></path></g></g><mask></mask><g stroke-linecap="round"><g transform="translate(604.8551691837085 561.6666666666661) rotate(0 0 180.83333333333348)"><path d="M0 0 C2.6 87.56, 1.05 176.87, 0 361.67" stroke="#1e1e1e" stroke-width="2.5" fill="none" stroke-dasharray="1.5 8"></path></g></g><mask></mask><g stroke-linecap="round"><g transform="translate(1261.5218358503746 58.333333333332746) rotate(0 -0.8333333333333712 435.00000000000006)"><path d="M0 0 C-2.73 248.46, -2.4 496.15, -1.67 870" stroke="#1e1e1e" stroke-width="2.5" fill="none" stroke-dasharray="1.5 8"></path></g></g><mask></mask><g transform="translate(307.1384994652833 300.1999999999998) rotate(0 116.05000305175781 43.19999999999999)"><text x="116.05000305175781" y="0" font-family="Cascadia, Segoe UI Emoji" font-size="36px" fill="#e03131" text-anchor="middle" style="white-space: pre;" direction="ltr" dominant-baseline="text-before-edge">Agent</text><text x="116.05000305175781" y="43.199999999999996" font-family="Cascadia, Segoe UI Emoji" font-size="36px" fill="#e03131" text-anchor="middle" style="white-space: pre;" direction="ltr" dominant-baseline="text-before-edge">Information</text></g><g transform="translate(922.138499465284 458.333333333333) rotate(0 116.05000305175781 43.19999999999999)"><text x="116.05000305175781" y="0" font-family="Cascadia, Segoe UI Emoji" font-size="36px" fill="#1971c2" text-anchor="middle" style="white-space: pre;" direction="ltr" dominant-baseline="text-before-edge">Principal</text><text x="116.05000305175781" y="43.199999999999996" font-family="Cascadia, Segoe UI Emoji" font-size="36px" fill="#1971c2" text-anchor="middle" style="white-space: pre;" direction="ltr" dominant-baseline="text-before-edge">Information</text></g><g transform="translate(1155.1885025170413 931.4666666666665) rotate(0 123 33.60000000000002)"><text x="123" y="0" font-family="Cascadia, Segoe UI Emoji" font-size="28px" fill="#1e1e1e" text-anchor="middle" style="white-space: pre;" direction="ltr" dominant-baseline="text-before-edge">Blockchain-like</text><text x="123" y="33.6" font-family="Cascadia, Segoe UI Emoji" font-size="28px" fill="#1e1e1e" text-anchor="middle" style="white-space: pre;" direction="ltr" dominant-baseline="text-before-edge">Society</text></g><g transform="translate(582.9885055687996 923.3333333333333) rotate(0 90.19999694824219 16.80000000000001)"><text x="90.19999694824219" y="0" font-family="Cascadia, Segoe UI Emoji" font-size="28px" fill="#1e1e1e" text-anchor="middle" style="white-space: pre;" direction="ltr" dominant-baseline="text-before-edge">Present day</text></g><g transform="translate(370.9218373762536 919.9999999999998) rotate(0 65.5999984741211 16.80000000000001)"><text x="65.5999984741211" y="0" font-family="Cascadia, Segoe UI Emoji" font-size="28px" fill="#1e1e1e" text-anchor="middle" style="white-space: pre;" direction="ltr" dominant-baseline="text-before-edge">Internet</text></g></svg>